<svg xmlns="http://www.w3.org/2000/svg" viewBox="0 0 512 512" width="512" height="512"><path d="M296 392v19.16A53.904 53.904 0 0 1 272 456l-8-56-40-40v-24h24zM328 384l-24-48-64-42.67V272h20.8l67.2 48 5.29 13.22A54.84 54.84 0 0 1 328 384zM368 368l-24-72-48-32v-24h24l48 32 9.74 43.84A67.587 67.587 0 0 1 368 368zM152 432l32 56v-56h-32z" fill="#ffe28f"/><path d="M336 152v64a34.78 34.78 0 0 1-12.15 26.41l-25.63 21.97c-.73.62-1.47 1.23-2.22 1.82a64.845 64.845 0 0 1-40 13.8h-56v-48a49.062 49.062 0 0 1 18.94-38.73l1.63-1.27 44.93-34.94a23.98 23.98 0 0 1 14.73-5.06z" fill="#ffb401"/><path d="M296 264v2.2a64.845 64.845 0 0 1-40 13.8h-56v-48a49.062 49.062 0 0 1 18.94-38.73l1.63-1.27H224a72.006 72.006 0 0 1 72 72zM256 294.76A157.59 157.59 0 0 1 246 350c-.64 1.69-1.3 3.36-1.99 5.03a157.532 157.532 0 0 1-34.14 51.1L184 432h-32l-34.39-63.05-2.71-4.97A89.244 89.244 0 0 1 193.24 232 62.762 62.762 0 0 1 256 294.76z" fill="#ffa100"/><path d="M376 144l40-40h38.702A35.1 35.1 0 0 1 488 128h-56l-32 32z" fill="#ffb401"/><path fill="#ffa100" d="M416 104l16 24-32 32-24-16 40-40z"/><path d="M432 184v47.85a24.146 24.146 0 0 1-38.35 19.53l-66.37-48.27A37.093 37.093 0 0 1 349.11 136H384a48 48 0 0 1 48 48zM222.92 391.33a157.16 157.16 0 0 1-13.05 14.8L184 432h-32l-34.39-63.05L120 368a84.89 84.89 0 0 1 76.53 6.83zM256 294.76A157.59 157.59 0 0 1 246 350l-14.29-14.29a114.715 114.715 0 0 0-127.21-23.93A89.255 89.255 0 0 1 193.24 232 62.762 62.762 0 0 1 256 294.76z" fill="#ffc431"/><path d="M368 368l-24-72 24-24 9.74 43.84A67.587 67.587 0 0 1 368 368zM328 384l-24-48 24-16 5.29 13.22A54.84 54.84 0 0 1 328 384zM296 392v19.16A53.904 53.904 0 0 1 272 456l-8-56z" fill="#ffd873"/><path d="M70.48 24A30.48 30.48 0 0 0 40 54.48v42.854A94.666 94.666 0 0 0 134.666 192h137.586A15.748 15.748 0 0 0 288 176.25a15.748 15.748 0 0 0-6.784-12.947L87.828 29.42A30.48 30.48 0 0 0 70.478 24z" fill="#e0edff"/><path d="M272.777 192H47.713A23.713 23.713 0 0 0 24 215.713 88.287 88.287 0 0 0 112.287 304a88.287 88.287 0 0 0 44.235-11.88l123.882-71.722A15.223 15.223 0 0 0 288 207.223 15.223 15.223 0 0 0 272.777 192z" fill="#d1e4ff"/><path d="M404.7 180.98a15.244 15.244 0 0 1-22.81 13.24l-33.8-19.31A23.996 23.996 0 0 1 336 154.07v-15.69a36.972 36.972 0 0 1 13.11-2.38H384l19.09 38.17a15.272 15.272 0 0 1 1.61 6.81z" fill="#ffe28f"/><path d="M495.59 125.47A43.044 43.044 0 0 0 454.7 96H416a8 8 0 0 0-5.657 2.343L380.687 128h-31.582a45.016 45.016 0 0 0-34.42 16h-34.45a32.075 32.075 0 0 0-10.342 1.734L92.383 22.842A38.48 38.48 0 0 0 32 54.48v42.854A102.678 102.678 0 0 0 79.685 184H47.713A31.75 31.75 0 0 0 16 215.713a96.437 96.437 0 0 0 80.573 94.998 97.22 97.22 0 0 0 11.3 57.1l37.104 68.02c.026.048.06.088.085.135l-.008.004 32 56A8 8 0 0 0 192 488v-52.687l23.522-23.522a167.024 167.024 0 0 0 21.92-27.034l19.016 19.015 7.623 53.36a8 8 0 0 0 12.357 5.526 61.772 61.772 0 0 0 27.563-51.5V392a8.002 8.002 0 0 0-1.926-5.207L258.77 336.27a165.012 165.012 0 0 0 3.627-18.39l35.398 23.598 23.05 46.1a8 8 0 0 0 6.658 4.406c.166.01.332.016.498.016a8 8 0 0 0 6.656-3.563 62.82 62.82 0 0 0 6.06-58.19l-5.288-13.218a8 8 0 0 0-2.778-3.54l-45.49-32.492a72.893 72.893 0 0 0 10.634-6.187l39.484 26.324 23.133 69.396a8 8 0 0 0 14.246 1.908 75.953 75.953 0 0 0 10.896-58.33l-9.742-43.843a8 8 0 0 0-3.373-4.92L335.923 241a42.69 42.69 0 0 0 7.207-16.468l45.814 33.32a32.148 32.148 0 0 0 51.056-26V184a55.78 55.78 0 0 0-14.803-37.883L435.314 136H488a8 8 0 0 0 7.59-10.53zm-94.838 5.092l14.005-14.005 6.95 10.424-8.975 8.975a55.728 55.728 0 0 0-11.98-5.393zM379.056 144l16.876 33.752a7.242 7.242 0 0 1-10.07 9.526l-33.8-19.314A16.035 16.035 0 0 1 344 154.072v-9.614a29.13 29.13 0 0 1 5.105-.458zM247.123 248.91l31.514-18.246a63.24 63.24 0 0 1 9.326 31.488 56.91 56.91 0 0 1-27.786 9.68 70.698 70.698 0 0 0-13.054-22.922zm-4.627 86.273l-5.126-5.126a122.207 122.207 0 0 0-64.373-33.883c-1.965-.364-3.933-.663-5.903-.932l65.887-38.145a54.714 54.714 0 0 1 15.02 37.66 150.236 150.236 0 0 1-5.504 40.426zM48 97.333V54.48a22.48 22.48 0 0 1 35.274-18.483l193.39 133.884a7.72 7.72 0 0 1 1.72 1.657L130.97 112.572l-5.94 14.856L266.46 184H134.665A86.764 86.764 0 0 1 48 97.334zm-16 118.38A15.73 15.73 0 0 1 47.713 200h225.064a7.192 7.192 0 0 1 4.988 2.012l-183.44 39.31 3.35 15.643 164.478-35.245-109.64 63.476A80.287 80.287 0 0 1 32 215.713zm80.095 101.6a106.678 106.678 0 0 1 113.962 24.057l10.636 10.636a148.062 148.062 0 0 1-15.775 28.634l-20.146-12.59a93.237 93.237 0 0 0-79.46-9.06A81.485 81.485 0 0 1 112 321.244q0-1.966.095-3.93zM165.785 440H176v17.875zm14.9-16H156.75l-27.665-50.716a77.197 77.197 0 0 1 63.208 8.333l18.654 11.66q-3.242 3.688-6.738 7.2zm97.113 16.02l-4.858-34.01 15.06-3.764v8.91a45.805 45.805 0 0 1-10.202 28.865zm3.704-52.642l-15.048 3.762-20.695-20.694a163.34 163.34 0 0 0 7.294-16.257zm46.176-21.91l-13.364-26.73 9.92-6.613 1.626 4.065a46.822 46.822 0 0 1 1.818 29.278zm-13.76-45.695L304 326.385l-40.08-26.72c.05-1.632.08-3.268.08-4.91a70.915 70.915 0 0 0-.375-7.172q2.208-.233 4.393-.596zm-3.194-55.57l13.63-11.685 31.09 20.726-12.463 12.462zm58.475 82.094l-16.047-48.136 10.2-10.198 6.58 29.616a59.783 59.783 0 0 1-.734 28.72zM328 216a26.756 26.756 0 0 1-9.354 20.338l-15.877 13.61a78.812 78.812 0 0 0-11.31-28.963 23.145 23.145 0 0 0-1.31-29.15 23.695 23.695 0 0 0-.596-31.835h16.394a45.095 45.095 0 0 0 16.627 49.583l5.425 3.945zm96 15.853a16.148 16.148 0 0 1-25.645 13.06l-66.37-48.27A29.07 29.07 0 0 1 328 153.096v.977a32.068 32.068 0 0 0 16.124 27.784l33.8 19.314a23.242 23.242 0 0 0 32.318-30.573l-11.98-23.96A40.06 40.06 0 0 1 424 184zM436.28 120l-5.332-8h23.754a27.065 27.065 0 0 1 19.236 8zM62.45 248.198l16.003-3.436 3.36 15.648-16.003 3.436zM84.947 111.433l5.936-14.848 19.99 7.992-5.936 14.848z"/></svg>